<svg width="400" height="400" class="absolute -left-44 top-1/4 -mt-48 hidden lg:block" viewBox="0 0 120 120" fill="none" xmlns="http://www.w3.org/2000/svg">
<path d="M55.7001 80.82C53.3301 82.41 50.9001 82.72 48.5301 80.89C46.1801 79.08 45.9601 76.6 46.8701 73.56C43.7901 74.23 41.0201 74.21 39.2001 71.47C37.6401 69.12 38.0201 66.82 39.5601 64.6C39.7501 64.41 39.9401 64.23 40.1301 64.04C41.2301 63.25 42.5101 62.48 43.7901 62.74C46.1301 63.21 45.7001 62.13 45.8301 60.48C46.0001 58.2 45.7601 57.27 43.2101 57.64C42.2801 57.77 41.2101 56.95 40.2101 56.56C39.9401 56.29 39.6701 56.02 39.4001 55.76C38.0501 53.49 37.6301 51.18 39.2701 48.89C41.0901 46.35 43.6601 46.13 46.8201 46.97C46.0201 43.86 46.1401 41.13 48.8701 39.32C51.2101 37.78 53.5101 38.16 55.7101 39.69C55.9001 39.88 56.0801 40.07 56.2701 40.26C56.7201 41.37 57.6901 42.56 57.5201 43.56C57.0701 46.26 58.3501 45.77 60.2201 45.92C62.4701 46.1 62.6601 45.49 62.6001 43.57C62.5601 42.48 63.4201 41.37 63.8701 40.26C64.0701 40.06 64.2701 39.85 64.4701 39.65C66.8301 37.99 69.2601 37.71 71.6301 39.51C73.9901 41.31 74.2701 43.77 73.3601 46.79C76.3601 46.27 79.1601 46.14 81.0001 48.91C82.5601 51.26 82.2001 53.56 80.7201 55.8C80.4901 56.03 80.2601 56.25 80.0401 56.48C78.9201 56.92 77.7501 57.82 76.6901 57.7C74.4001 57.44 74.4301 58.25 74.4601 60.19C74.4901 62.07 74.3801 62.97 76.7001 62.71C77.7601 62.59 78.9301 63.5 80.0401 63.94C80.2701 64.17 80.5001 64.4 80.7401 64.63C82.3201 66.99 82.6301 69.42 80.8201 71.77C79.0201 74.1 76.6001 74.47 73.5501 73.47C74.1701 76.61 74.0701 79.47 71.1701 81.27C68.9401 82.65 66.7401 82.27 64.6201 80.92C64.3301 80.63 64.0501 80.34 63.7601 80.06C62.6401 78.4 62.3501 76.55 62.6601 74.62C59.4701 74.26 56.8201 74.35 57.1501 78.58C57.1901 79.09 56.6301 79.64 56.3401 80.17C56.1201 80.4 55.9101 80.61 55.7001 80.82ZM70.9801 71.09C69.1501 69.98 72.9901 66.49 68.9101 66.47C66.8301 66.46 66.34 67.17 66.3601 69.1C66.3901 73.15 69.8301 69.32 70.9801 71.09ZM49.3301 71.14C50.4601 69.61 54.5301 73.24 53.8201 68.26C53.2501 64.3 50.7401 67.42 49.3501 66.4C49.9201 68.05 49.3201 69.43 49.3301 71.14ZM71.1201 49.43C66.2901 49.93 66.4101 49.95 66.2701 51.07C65.8001 54.96 68.7401 53.64 71.0201 54.25C70.3401 52.44 70.8701 50.96 71.1201 49.43ZM49.2901 49.22C49.5601 50.98 49.7301 52.49 49.4601 54.19C50.7901 53 53.4601 55.94 53.9101 52.02C54.4601 47.17 50.3701 51.02 49.2901 49.22ZM58.2501 59.93C58.3301 60.96 57.5501 62.44 59.6601 62.02C60.7301 61.81 62.1101 62.57 61.9301 60.35C61.8101 58.84 61.7301 58.25 60.0001 58.36C58.7001 58.44 57.7701 58.31 58.2501 59.93Z" fill="#60A5FA"/>
<path d="M56.2899 40.26C56.0999 40.07 55.9199 39.88 55.7299 39.69C55.6999 39.45 55.7299 39.18 55.6399 38.97C54.4099 36.26 54.3699 33.7 56.8899 31.72C58.9399 30.11 61.2499 30.1 63.3099 31.7C65.8399 33.66 65.8099 36.23 64.6099 38.94C64.5199 39.15 64.5399 39.42 64.5099 39.66C64.3099 39.86 64.1099 40.07 63.9099 40.27C61.3599 41.3 58.8199 41.28 56.2899 40.26Z" fill="#60A5FA"/>
<path d="M80.7399 64.64C80.5099 64.41 80.2799 64.18 80.0399 63.95C78.9699 61.46 78.9899 58.98 80.0399 56.49C80.2699 56.26 80.4999 56.04 80.7199 55.81C81.5299 55.56 82.3199 55.25 83.1499 55.09C85.4999 54.64 87.5199 55.21 88.8699 57.3C90.0999 59.21 90.0999 61.22 88.8799 63.13C87.5399 65.22 85.5099 65.8 83.1599 65.35C82.3399 65.21 81.5499 64.89 80.7399 64.64Z" fill="#60A5FA"/>
<path d="M63.75 80.07C64.04 80.36 64.32 80.65 64.61 80.93C64.77 81.51 64.93 82.1 65.08 82.68C65.74 85.16 65.3401 87.37 63.1401 88.9C61.1201 90.3 58.9401 90.27 56.9501 88.82C54.7901 87.24 54.4401 85.02 55.1701 82.56C55.3401 81.98 55.5301 81.4 55.7001 80.82C55.9101 80.61 56.12 80.39 56.33 80.18C58.79 79.14 61.27 79.17 63.75 80.07Z" fill="#60A5FA"/>
<path d="M40.14 64.04C39.95 64.23 39.76 64.41 39.57 64.6C36.6 65.55 33.62 66.4 31.41 63.2C30.12 61.34 30.09 59.31 31.32 57.39C33.43 54.12 36.42 54.84 39.42 55.74C39.69 56.01 39.96 56.28 40.23 56.54C41.2 59.06 41.11 61.56 40.14 64.04Z" fill="#60A5FA"/>
<path d="M89.55 76.37C89.61 79.12 87.13 81.6 84.38 81.55C81.77 81.5 79.44 79.18 79.39 76.56C79.33 73.8 81.8 71.33 84.56 71.38C87.16 71.44 89.49 73.76 89.55 76.37Z" fill="#60A5FA"/>
<path d="M35.7799 81.51C33.0599 81.54 30.6099 79.05 30.6999 76.34C30.7799 73.75 33.0999 71.47 35.6899 71.44C38.4099 71.41 40.8599 73.9 40.7699 76.61C40.6999 79.2 38.3699 81.48 35.7799 81.51Z" fill="#60A5FA"/>
<path d="M48.91 84.41C49.02 87.13 46.59 89.64 43.85 89.64C41.26 89.64 38.91 87.36 38.8 84.77C38.69 82.05 41.12 79.54 43.86 79.54C46.46 79.54 48.81 81.81 48.91 84.41Z" fill="#60A5FA"/>
<path d="M84.18 49.05C81.42 48.88 79.14 46.23 79.42 43.52C79.69 40.9 82.17 38.76 84.74 38.92C87.5 39.09 89.78 41.75 89.5 44.45C89.24 47.07 86.76 49.21 84.18 49.05Z" fill="#60A5FA"/>
<path d="M35.56 38.95C38.12 38.85 40.55 41.03 40.76 43.63C40.98 46.32 38.65 48.92 35.91 49.03C33.2 49.14 30.69 46.72 30.7 43.99C30.71 41.4 32.97 39.05 35.56 38.95Z" fill="#60A5FA"/>
<path d="M81.4101 35.89C81.4001 38.64 78.8701 41.06 76.1401 40.93C73.5301 40.81 71.2701 38.45 71.2801 35.84C71.2901 33.09 73.8201 30.67 76.5501 30.8C79.1601 30.92 81.4201 33.29 81.4101 35.89Z" fill="#60A5FA"/>
<path d="M43.88 30.83C46.61 30.84 49.02 33.36 48.89 36.07C48.77 38.67 46.41 40.92 43.83 40.9C41.1 40.89 38.69 38.37 38.81 35.66C38.94 33.07 41.3 30.81 43.88 30.83Z" fill="#60A5FA"/>
<path d="M81.41 84.53C81.45 87.28 78.96 89.73 76.22 89.66C73.61 89.59 71.31 87.26 71.28 84.65C71.24 81.9 73.72 79.45 76.47 79.53C79.08 79.6 81.37 81.92 81.41 84.53Z" fill="#60A5FA"/>
<path d="M47.29 92.42C47.7 89.56 49.32 88.03 52.2 88.06C54.95 88.09 56.96 90.43 56.61 93.19C56.24 96.08 54.44 97.53 51.59 97.33C48.68 97.12 47.37 95.24 47.29 92.42Z" fill="#60A5FA"/>
<path d="M92.5799 73.07C89.7199 72.82 88.0499 71.33 87.9099 68.43C87.7799 65.67 90.0199 63.47 92.7799 63.67C95.6599 63.88 97.2999 65.57 97.2399 68.45C97.1899 71.35 95.4299 72.83 92.5799 73.07Z" fill="#60A5FA"/>
<path d="M32.2799 68.3C32.0599 71.16 30.61 72.92 27.67 72.94C24.76 72.96 23.0599 71.32 23.0199 68.4C22.9899 65.49 24.6399 63.8 27.5499 63.75C30.4899 63.71 31.9999 65.43 32.2799 68.3Z" fill="#60A5FA"/>
<path d="M72.9498 92.66C72.7398 95.49 71.2898 97.28 68.3898 97.37C65.5198 97.45 63.7998 95.85 63.5498 92.96C63.3098 90.2 65.4898 87.93 68.2498 88.03C71.1498 88.14 72.6598 89.79 72.9498 92.66Z" fill="#60A5FA"/>
<path d="M92.51 56.83C89.64 56.53 88 55 87.91 52.1C87.83 49.34 90.11 47.17 92.87 47.43C95.75 47.7 97.35 49.42 97.25 52.29C97.14 55.2 95.34 56.63 92.51 56.83Z" fill="#60A5FA"/>
<path d="M27.81 47.45C30.67 47.8 32.32 49.38 32.21 52.29C32.1 55.21 30.33 56.8 27.44 56.7C24.52 56.6 22.94 54.83 23.03 51.93C23.12 48.99 24.94 47.6 27.81 47.45Z" fill="#60A5FA"/>
<path d="M56.6801 27.64C56.3701 30.69 54.8501 32.41 51.9201 32.36C49.0001 32.31 47.3401 30.6 47.3801 27.68C47.4201 24.76 49.1401 23.11 52.0501 23.13C55.0101 23.15 56.4101 24.97 56.6801 27.64Z" fill="#60A5FA"/>
<path d="M72.9199 27.8C72.6499 30.65 71.1499 32.3 68.2499 32.4C65.4799 32.5 63.3399 30.27 63.5699 27.5C63.7999 24.62 65.4999 23.03 68.3699 23.11C71.2699 23.19 72.7099 24.96 72.9199 27.8Z" fill="#60A5FA"/>
<path d="M35.86 96.99C33.31 96.7 31.61 95.36 31.55 92.8C31.5 90.25 33.1 88.59 35.64 88.53C38.19 88.47 39.85 90.08 39.91 92.62C39.99 95.18 38.32 96.57 35.86 96.99Z" fill="#60A5FA"/>
<path d="M60.17 105.13C57.66 104.83 55.95 103.49 55.89 100.92C55.84 98.36 57.46 96.69 60 96.62C62.56 96.56 64.23 98.18 64.3 100.73C64.38 103.32 62.71 104.72 60.17 105.13Z" fill="#60A5FA"/>
<path d="M101.01 55.95C103.28 56.32 104.83 57.68 104.97 60.23C105.09 62.54 102.7 64.79 100.44 64.48C97.95 64.14 96.49 62.59 96.46 60.04C96.42 57.86 98.64 55.89 101.01 55.95Z" fill="#60A5FA"/>
<path d="M23.76 60.19C23.35 62.82 21.95 64.46 19.4 64.39C16.87 64.32 15.27 62.67 15.33 60.13C15.39 57.6 17.05 56.01 19.59 56.06C22.15 56.11 23.43 57.85 23.76 60.19Z" fill="#60A5FA"/>
<path d="M60.04 15.35C62.54 15.64 64.24 16.98 64.28 19.54C64.33 22.09 62.72 23.75 60.18 23.8C57.63 23.85 55.98 22.24 55.92 19.7C55.86 17.14 57.52 15.75 60.04 15.35Z" fill="#60A5FA"/>
<path d="M39.99 27.68C39.71 30.17 38.38 31.85 35.83 31.91C33.29 31.96 31.64 30.37 31.58 27.84C31.52 25.3 33.12 23.65 35.65 23.59C38.2 23.52 39.59 25.16 39.99 27.68Z" fill="#60A5FA"/>
<path d="M88.7599 92.79C88.3399 95.32 86.9399 96.99 84.3699 96.92C81.8199 96.85 80.1999 95.18 80.2599 92.62C80.3299 90.07 81.9999 88.45 84.5599 88.51C87.1299 88.56 88.4699 90.28 88.7599 92.79Z" fill="#60A5FA"/>
<path d="M84.3998 23.45C86.9098 23.75 88.6198 25.09 88.6798 27.66C88.7298 30.22 87.1099 31.89 84.5599 31.95C81.9999 32.01 80.3298 30.38 80.2698 27.83C80.1898 25.26 81.8598 23.86 84.3998 23.45Z" fill="#60A5FA"/>
<path d="M27.5799 80.33C30.2099 80.73 31.8499 82.13 31.7799 84.68C31.7199 87.21 30.0699 88.81 27.5299 88.76C24.9999 88.7 23.41 87.05 23.45 84.51C23.5 81.94 25.2299 80.66 27.5799 80.33Z" fill="#60A5FA"/>
<path d="M92.65 40.16C90.14 39.86 88.43 38.51 88.38 35.94C88.33 33.38 89.95 31.71 92.51 31.65C95.07 31.59 96.73 33.22 96.8 35.77C96.86 38.36 95.18 39.76 92.65 40.16Z" fill="#60A5FA"/>
<path d="M31.8699 35.74C31.5799 38.29 30.2499 39.98 27.6999 40.03C25.1599 40.08 23.5099 38.48 23.4499 35.95C23.3899 33.41 24.9898 31.77 27.5198 31.7C30.0898 31.63 31.4599 33.3 31.8699 35.74Z" fill="#60A5FA"/>
<path d="M96.8999 84.68C96.4899 87.17 95.1199 88.72 92.5699 88.84C90.2599 88.96 88.0199 86.56 88.3299 84.29C88.6799 81.8 90.2399 80.22 92.7799 80.35C95.3099 80.49 96.6299 82.19 96.8999 84.68Z" fill="#60A5FA"/>
<path d="M100.83 40.08C103.32 40.34 104.68 41.71 104.56 44.2C104.43 46.72 102.86 47.98 100.4 47.83C98.0899 47.69 96.8199 46.26 96.8499 43.94C96.8799 41.43 98.3699 40.21 100.83 40.08Z" fill="#60A5FA"/>
<path d="M100.81 80.41C98.2099 80.17 96.7899 78.88 96.8299 76.41C96.8699 73.94 98.2999 72.56 100.76 72.59C103.23 72.62 104.59 74.06 104.59 76.52C104.58 79.04 103.05 80.2 100.81 80.41Z" fill="#60A5FA"/>
<path d="M19.3399 80.34C16.8899 80.06 15.5499 78.7 15.6899 76.23C15.8299 73.73 17.3899 72.5 19.8299 72.66C22.1299 72.81 23.3599 74.24 23.3099 76.53C23.2699 79.04 21.7799 80.22 19.3399 80.34Z" fill="#60A5FA"/>
<path d="M76.3401 15.74C78.8001 15.93 80.2301 17.21 80.1801 19.71C80.1201 22.22 78.6401 23.53 76.1701 23.46C73.8601 23.39 72.5501 22.03 72.5101 19.72C72.4701 17.21 73.8801 15.93 76.3401 15.74Z" fill="#60A5FA"/>
<path d="M19.7499 47.86C17.1499 47.71 15.6799 46.49 15.6799 43.99C15.6899 41.5 17.0999 40.14 19.5799 40.17C21.8799 40.19 23.2099 41.5 23.3099 43.8C23.4199 46.31 22.0099 47.57 19.7499 47.86Z" fill="#60A5FA"/>
<path d="M80.27 100.83C79.98 103.47 78.59 104.82 76.11 104.68C73.59 104.54 72.34 102.95 72.5 100.49C72.65 98.17 74.1 96.93 76.41 96.96C78.96 97.01 80.09 98.56 80.27 100.83Z" fill="#60A5FA"/>
<path d="M43.9901 104.73C41.3601 104.51 39.9501 103.2 40.0301 100.7C40.1101 98.19 41.6101 96.9 44.0801 96.99C46.3901 97.08 47.6701 98.46 47.7001 100.77C47.7401 103.32 46.2401 104.5 43.9901 104.73Z" fill="#60A5FA"/>
<path d="M47.73 19.78C47.45 22.23 46.09 23.57 43.62 23.43C41.12 23.29 39.89 21.73 40.05 19.29C40.2 16.99 41.63 15.76 43.92 15.81C46.43 15.85 47.61 17.34 47.73 19.78Z" fill="#60A5FA"/>
<path d="M108.8 71.88C106.58 71.45 105.21 70.23 105.4 68.09C105.58 66.01 107.02 64.71 109.18 64.93C111.11 65.12 112.34 66.46 112.27 68.43C112.19 70.58 110.73 71.62 108.8 71.88Z" fill="#60A5FA"/>
<path d="M11.3899 71.75C9.31994 71.54 7.98994 70.39 8.03994 68.24C8.07994 66.28 9.34994 65.02 11.3199 65.01C13.4599 65 14.7699 66.32 14.7299 68.47C14.6799 70.42 13.3999 71.51 11.3899 71.75Z" fill="#60A5FA"/>
<path d="M68.1199 8.07001C70.0099 8.20001 71.3899 9.17001 71.5799 11.15C71.7799 13.32 70.5299 14.75 68.3999 14.87C66.2499 14.99 64.8799 13.65 64.8499 11.5C64.8199 9.52002 66.0899 8.39001 68.1199 8.07001Z" fill="#60A5FA"/>
<path d="M112.34 51.99C112.14 54.06 111.04 55.5 108.9 55.54C106.77 55.58 105.42 54.21 105.39 52.08C105.37 50.12 106.65 48.8 108.58 48.67C110.72 48.53 111.93 49.87 112.34 51.99Z" fill="#60A5FA"/>
<path d="M11.28 48.71C13.15 48.83 14.51 49.78 14.7 51.75C14.9 53.9 13.67 55.32 11.55 55.44C9.42001 55.55 8.06002 54.25 8.03002 52.1C8.01002 50.13 9.25002 49.01 11.28 48.71Z" fill="#60A5FA"/>
<path d="M55.4601 108.88C55.2501 110.93 54.1401 112.35 52.0201 112.36C49.9101 112.37 48.5801 111.02 48.5801 108.9C48.5801 106.95 49.8601 105.66 51.7801 105.55C53.9001 105.43 55.1001 106.75 55.4601 108.88Z" fill="#60A5FA"/>
<path d="M55.4101 11.44C55.2601 13.36 54.24 14.71 52.27 14.86C50.11 15.02 48.68 13.75 48.61 11.61C48.53 9.46001 49.89 8.11 52.05 8.12C54.02 8.14 55.1301 9.43 55.4101 11.44Z" fill="#60A5FA"/>
<path d="M68.2299 112.43C66.1499 112.16 64.7599 111.01 64.8099 108.88C64.8599 106.77 66.2599 105.47 68.3799 105.54C70.3099 105.61 71.5899 106.9 71.6299 108.84C71.6799 110.98 70.3299 112.13 68.2299 112.43Z" fill="#60A5FA"/>
<path d="M100.67 95.82C98.66 95.66 97.54 94.58 97.63 92.52C97.71 90.65 98.84 89.61 100.7 89.63C102.77 89.65 103.85 90.85 103.77 92.89C103.71 94.78 102.55 95.7 100.67 95.82Z" fill="#60A5FA"/>
<path d="M92.29 16.52C94.47 16.63 95.65 17.61 95.63 19.68C95.61 21.54 94.56 22.63 92.7 22.67C90.66 22.72 89.53 21.61 89.52 19.57C89.53 17.68 90.67 16.77 92.29 16.52Z" fill="#60A5FA"/>
<path d="M92.63 97.72C94.51 97.88 95.63 98.84 95.66 100.73C95.69 102.78 94.57 103.93 92.51 103.91C90.64 103.89 89.56 102.82 89.51 100.94C89.47 98.87 90.63 97.84 92.63 97.72Z" fill="#60A5FA"/>
<path d="M100.43 24.62C102.61 24.73 103.8 25.72 103.78 27.8C103.76 29.67 102.71 30.77 100.83 30.81C98.7799 30.86 97.6299 29.74 97.6299 27.68C97.6299 25.79 98.7699 24.86 100.43 24.62Z" fill="#60A5FA"/>
<path d="M30.6699 19.69C30.4899 21.53 29.5199 22.64 27.6399 22.63C25.5699 22.62 24.4899 21.4 24.6199 19.38C24.7299 17.52 25.9199 16.54 27.7799 16.62C29.6599 16.7 30.5599 17.85 30.6699 19.69Z" fill="#60A5FA"/>
<path d="M19.61 89.64C21.46 89.84 22.55 90.83 22.52 92.73C22.48 94.82 21.24 95.88 19.2 95.73C17.32 95.6 16.36 94.38 16.46 92.51C16.58 90.61 17.75 89.72 19.61 89.64Z" fill="#60A5FA"/>
<path d="M87.3599 11.4C87.2099 13.08 86.3299 14.24 84.6499 14.33C82.7799 14.43 81.6099 13.29 81.6299 11.42C81.6499 9.74002 82.7599 8.68001 84.4499 8.66001C86.1599 8.65001 87.0699 9.76002 87.3599 11.4Z" fill="#60A5FA"/>
<path d="M38.6099 11.51C38.3699 13.15 37.4799 14.3 35.8099 14.31C33.9699 14.32 32.8199 13.15 32.9299 11.31C33.0299 9.68002 34.1499 8.62001 35.8399 8.69001C37.5199 8.76001 38.3899 9.88001 38.6099 11.51Z" fill="#60A5FA"/>
<path d="M27.61 97.76C29.47 97.89 30.62 98.83 30.65 100.73C30.68 102.8 29.51 103.93 27.45 103.85C25.56 103.78 24.55 102.62 24.59 100.75C24.63 98.85 25.75 97.91 27.61 97.76Z" fill="#60A5FA"/>
<path d="M108.81 87.53C107.02 87.28 105.86 86.3 105.96 84.42C106.05 82.75 107.14 81.69 108.82 81.71C110.68 81.74 111.79 82.89 111.71 84.76C111.63 86.45 110.5 87.33 108.81 87.53Z" fill="#60A5FA"/>
<path d="M11.1599 81.7C12.9499 81.9 14.1099 82.77 14.1799 84.43C14.2599 86.27 13.1099 87.44 11.2699 87.4C9.61987 87.37 8.56988 86.25 8.55988 84.58C8.54988 82.87 9.72988 82.05 11.1599 81.7Z" fill="#60A5FA"/>
<path d="M19.61 30.82C17.58 30.6 16.47 29.64 16.49 27.76C16.51 25.69 17.73 24.62 19.76 24.75C21.62 24.87 22.59 26.06 22.51 27.92C22.43 29.82 21.21 30.64 19.61 30.82Z" fill="#60A5FA"/>
<path d="M108.65 38.78C106.92 38.41 105.78 37.4 105.99 35.54C106.17 33.92 107.3 32.88 108.97 33C110.79 33.14 111.86 34.33 111.67 36.17C111.5 37.82 110.35 38.68 108.65 38.78Z" fill="#60A5FA"/>
<path d="M38.64 109.07C38.34 110.71 37.42 111.81 35.72 111.79C34.03 111.77 32.93 110.7 32.92 109.02C32.91 107.15 34.09 106.02 35.95 106.13C37.61 106.22 38.49 107.39 38.64 109.07Z" fill="#60A5FA"/>
<path d="M84.2699 106C86.2199 106.28 87.3899 107.23 87.3199 109.09C87.2499 110.74 86.1699 111.81 84.4999 111.8C82.6599 111.79 81.5599 110.65 81.5999 108.8C81.6499 107.13 82.8499 106.33 84.2699 106Z" fill="#60A5FA"/>
<path d="M14.2301 35.94C13.9201 37.6 12.99 38.72 11.28 38.64C9.60005 38.57 8.53005 37.45 8.59005 35.76C8.66005 34.08 9.77005 33.01 11.4701 33.07C13.1601 33.14 14.0401 34.29 14.2301 35.94Z" fill="#60A5FA"/>
<path d="M119.51 60.16C119.34 61.81 118.49 62.76 116.93 62.74C115.37 62.72 114.42 61.76 114.44 60.2C114.46 58.64 115.42 57.7 116.98 57.71C118.55 57.72 119.35 58.72 119.51 60.16Z" fill="#60A5FA"/>
<path d="M78.57 116.79C78.51 118.28 77.87 119.14 76.61 119.26C75.17 119.4 74.22 118.64 74.17 117.16C74.12 115.69 74.99 114.87 76.45 114.89C77.76 114.91 78.35 115.79 78.57 116.79Z" fill="#60A5FA"/>
<path d="M57.6099 117.12C57.8399 115.37 58.7599 114.51 60.3199 114.64C61.9099 114.77 62.6899 115.85 62.5299 117.39C62.3899 118.76 61.4699 119.56 60.0499 119.52C58.4499 119.48 57.7399 118.47 57.6099 117.12Z" fill="#60A5FA"/>
<path d="M46.0699 117.06C45.9099 118.44 45.1799 119.3 43.7299 119.24C42.4799 119.18 41.7 118.38 41.7 117.13C41.7 115.7 42.5599 114.87 43.9899 114.92C45.2499 114.96 45.8999 115.8 46.0699 117.06Z" fill="#60A5FA"/>
<path d="M46.0399 3.4C45.8699 4.65 45.1999 5.5 43.9299 5.51C42.4799 5.52 41.6199 4.62 41.7399 3.18C41.8399 1.95 42.6899 1.17001 43.9799 1.25001C45.2399 1.32001 45.8899 2.15 46.0399 3.4Z" fill="#60A5FA"/>
<path d="M62.54 3.39002C62.34 5.15001 61.36 5.93001 59.79 5.78001C58.37 5.64001 57.61 4.68001 57.7 3.26001C57.8 1.61001 58.85 0.850016 60.42 1.00002C61.85 1.12002 62.49 2.11002 62.54 3.39002Z" fill="#60A5FA"/>
<path d="M78.5799 3.3C78.3199 4.86 77.5099 5.69001 76.0899 5.54001C74.8799 5.41001 74.0999 4.57001 74.1899 3.31001C74.2799 1.88001 75.1899 1.10001 76.6099 1.23001C77.8499 1.34001 78.4199 2.26 78.5799 3.3Z" fill="#60A5FA"/>
<path d="M5.42996 43.98C5.27996 45.23 4.60997 46.09 3.34997 46.11C1.89997 46.14 1.03997 45.25 1.12997 43.8C1.20997 42.56 2.05996 41.79 3.33996 41.84C4.61996 41.91 5.26996 42.74 5.42996 43.98Z" fill="#60A5FA"/>
<path d="M119.2 43.75C119.1 45.35 118.38 46.19 116.92 46.19C115.65 46.19 114.85 45.47 114.75 44.22C114.63 42.81 115.34 41.88 116.8 41.77C118.27 41.67 118.97 42.55 119.2 43.75Z" fill="#60A5FA"/>
<path d="M5.64995 60.24C5.54995 61.77 4.71995 62.66 3.11995 62.6C1.69995 62.55 0.889964 61.7 0.879964 60.28C0.869964 58.67 1.77996 57.81 3.37996 57.86C4.80996 57.9 5.53995 58.77 5.64995 60.24Z" fill="#60A5FA"/>
<path d="M5.42997 76.53C5.23997 77.77 4.55998 78.62 3.28998 78.6C1.83998 78.58 0.989979 77.67 1.12998 76.23C1.24998 75.01 2.11997 74.23 3.39997 74.33C4.65997 74.43 5.31997 75.27 5.42997 76.53Z" fill="#60A5FA"/>
<path d="M119.19 76.42C119.1 77.83 118.38 78.68 116.92 78.68C115.65 78.68 114.85 77.96 114.75 76.71C114.63 75.3 115.34 74.36 116.8 74.26C118.24 74.17 119.02 74.98 119.19 76.42Z" fill="#60A5FA"/>
</svg>
